<?xml version="1.0" encoding="UTF-8"?>
<svg width="320px" height="320px" viewBox="0 0 320 320" version="1.1" xmlns="http://www.w3.org/2000/svg" xmlns:xlink="http://www.w3.org/1999/xlink" style="background: #681F4B;">
    <!-- Generator: Sketch 45.2 (43514) - http://www.bohemiancoding.com/sketch -->
    <title>Artboard</title>
    <desc>Created with Sketch.</desc>
    <defs></defs>
    <g id="Page-1" stroke="none" stroke-width="1" fill="none" fill-rule="evenodd">
        <g id="Artboard">
            <ellipse id="Oval-4" fill="#F6E0D5" cx="279.759071" cy="162.948502" rx="77.7590709" ry="74.9485021"></ellipse>
            <g id="Group" transform="translate(14.000000, 132.000000)">
                <text id="Aix-Talks" font-family="SignPainter-HouseScript, SignPainter" font-size="68" font-style="italic" font-weight="normal" letter-spacing="14.9600039">
                    <tspan x="0.209984589" y="48" fill="#F6E0D5">Aix </tspan>
                    <tspan x="123.017996" y="48" fill="#681F4B">T</tspan>
                    <tspan x="153.822" y="48" fill="#F6E0D5">a</tspan>
                    <tspan x="196.458004" y="48" fill="#681F4B">lks</tspan>
                </text>
                <g id="tree-shape-of-straight-lines-like-a-computer-printed-circuit" transform="translate(106.000000, 0.000000)" fill-rule="nonzero" fill="#F6E0D5">
                    <path d="M6.47615455,27.9365727 C7.43588182,28.8962182 8.39560909,29.8560273 9.35533636,30.8156727 C9.44018182,31.0414091 9.63842727,31.2199364 9.95252727,31.2199364 L14.7591818,31.2199364 C14.9788636,31.4705455 15.2001818,31.7196 15.4184727,31.9716818 C16.4389091,33.1477364 17.8950273,34.4456182 18.4682455,35.9081182 C18.4929545,35.9712 18.5256818,36.0246273 18.5613545,36.0733909 L18.5613545,47.8034182 C18.5613545,48.7871182 20.0869364,48.7871182 20.0869364,47.8034182 L20.0869364,31.5134182 C20.2565455,31.6822909 20.4260727,31.8512455 20.5953545,32.0201182 L20.5953545,47.8030909 C20.5953545,48.7868727 22.1209364,48.7868727 22.1209364,47.8030909 L22.1209364,33.6168 C22.1256,33.5964273 22.1339455,33.5784273 22.1393455,33.5583818 C22.3132091,33.7315909 22.4868273,33.9048818 22.6607727,34.0781727 C22.6293545,34.1559818 22.6127455,34.2351 22.6107818,34.3135636 C22.5843545,34.3909636 22.5660273,34.4754818 22.5660273,34.5718636 L22.5660273,47.8035 C22.5660273,48.7872 24.0916091,48.7872 24.0916091,47.8035 L24.0916091,35.5039364 C24.2744727,35.6862273 24.4575,35.8684364 24.6403636,36.0508091 L24.6403636,47.8275545 C24.6403636,48.6884455 25.9756364,48.6884455 25.9756364,47.8275545 L25.9756364,38.2746273 C27.4470545,36.8645727 28.9386,35.4758727 30.4507636,34.1092636 C30.5509909,34.0187727 30.6083455,33.9196909 30.6380455,33.8184818 C30.6958091,33.7247182 30.7324636,33.6111545 30.7324636,33.4732909 L30.7324636,30.8224636 L34.6621909,26.8730182 C34.6875545,26.8756364 34.7112818,26.8807091 34.7382818,26.8807091 L39.2024455,26.8807091 C39.5973,27.0502364 40.1628273,26.8573909 40.1628273,26.2965273 L40.1628273,12.6099818 C40.1628273,11.7490909 38.8275545,11.7490909 38.8275545,12.6099818 L38.8275545,25.5454364 L35.9830636,25.5454364 L37.3600636,24.1614 C37.5846545,23.9354182 37.5964364,23.6640273 37.4922,23.4423818 L37.4922,19.1191091 C37.4922,18.2582182 36.1569273,18.2582182 36.1569273,19.1191091 L36.1569273,23.4771545 C34.3486636,25.2945 32.5407273,27.1117636 30.7323818,28.9291091 L30.7323818,26.1163636 C31.7038091,25.1446091 32.6752364,24.1731818 33.6469909,23.2017545 C33.8589818,22.9897636 33.8800091,22.7387455 33.7949182,22.5254455 C33.7864909,22.4606455 33.7675091,22.3976455 33.7368273,22.3371818 L33.7368273,18.9913091 C33.7594909,18.9736364 33.7825636,18.9582545 33.8045727,18.9365727 C34.7455636,18.0052364 35.6863091,17.0738182 36.6273,16.1424818 C36.8733273,16.0677 37.0753364,15.8647091 37.0753364,15.5305636 L37.0753364,6.93474545 C37.0753364,6.07385455 35.7400636,6.07385455 35.7400636,6.93474545 L35.7400636,15.1420091 C35.0724273,15.8030182 34.4048727,16.4639455 33.7372364,17.1245455 L33.7372364,9.52183636 C33.7372364,8.66094545 32.4019636,8.66094545 32.4019636,9.52183636 L32.4019636,21.4054364 C31.9726636,21.123 31.5550636,20.8235455 31.1501455,20.5060909 L31.1501455,13.6945636 C31.1501455,12.8336727 29.8148727,12.8336727 29.8148727,13.6945636 L29.8148727,20.8716545 C29.8148727,21.1971273 30.0058364,21.3993818 30.2435182,21.4785 C30.8540455,21.9582 31.4826545,22.4098364 32.1389182,22.8217091 L30.7327909,24.2280818 L30.7327909,23.4586636 C30.7327909,22.5977727 29.3976,22.5977727 29.3976,23.4586636 L29.3976,25.5634364 C29.0273727,25.9335818 28.6571455,26.3038909 28.287,26.6740364 L28.287,26.5625182 C28.287,26.4711273 28.2703091,26.3906182 28.2462545,26.3161636 C28.2152455,26.199 28.1544545,26.0825727 28.0476,25.9753909 C27.2798182,25.2055636 26.5120364,24.4358182 25.7443364,23.6659909 L25.7443364,20.6840455 C26.5958182,19.7874 27.4558091,18.8987727 28.3247182,18.0191455 C28.4205273,17.9219455 28.4796,17.8175455 28.5133091,17.7116727 C28.5691091,17.6098909 28.6044545,17.4897 28.6044545,17.3457818 L28.6044545,5.39582727 C28.6044545,4.41204545 27.0788727,4.41204545 27.0788727,5.39582727 L27.0788727,17.1118636 C26.6319,17.5654636 26.1865636,18.0211909 25.7439273,18.4795364 L25.7439273,9.97249091 C25.7439273,8.98879091 24.2183455,8.98879091 24.2183455,9.97249091 L24.2183455,22.1364818 C24.0488182,21.9665455 23.8792091,21.7966909 23.7099273,21.6267545 L23.7099273,6.73077273 C23.7099273,5.74699091 22.1844273,5.74699091 22.1844273,6.73077273 L22.1844273,21.7953 C22.1844273,21.9769364 22.2367909,22.1244545 22.3216364,22.2389182 C22.3503545,22.3627909 22.4124545,22.4856 22.5249545,22.5987545 L24.2181818,24.2969727 L24.2181818,29.0842364 C23.5184727,29.7302727 22.8175364,30.3741818 22.1205273,31.0230818 L22.1205273,28.4697 C22.1205273,28.4012182 22.1118545,28.3387909 22.0981909,28.2801273 C22.1792727,27.3641727 21.7827818,26.5205455 20.9938909,25.9827545 C20.7044182,25.7854909 20.3996455,25.6309364 20.0865273,25.4890636 L20.0865273,18.8677636 C20.4670636,18.4822364 20.8476818,18.0963 21.2282182,17.7107727 C21.3322909,17.6053091 21.3877636,17.4901091 21.4097727,17.3746636 C21.6304364,17.2872 21.8029909,17.0912455 21.8029909,16.7824636 L21.8029909,4.43110909 C21.8029909,3.57021818 20.4677182,3.57021818 20.4677182,4.43110909 L20.4677182,16.6347818 C20.4046364,16.6668545 20.3428636,16.7071909 20.2844455,16.7666727 C20.2186636,16.8334364 20.1528818,16.9002 20.0871,16.9666364 L20.0871,5.14178182 C20.0871,4.158 18.5615182,4.158 18.5615182,5.14178182 L18.5615182,18.5131636 C18.3285,18.7495364 18.0954818,18.9855 17.8622182,19.2218727 L17.8622182,5.07804545 C17.8622182,4.09426364 16.3366364,4.09426364 16.3366364,5.07804545 L16.3366364,24.7192364 C16.3366364,24.9362182 16.4133818,25.1024727 16.5292364,25.2236455 C17.0102455,25.8772091 17.6725636,26.1202909 18.4095818,26.4244091 C18.4553182,26.4433909 18.5067818,26.4631091 18.5614364,26.4838091 L18.5614364,28.1084727 C17.6574273,27.2078182 16.7535,26.3071636 15.8494909,25.4062636 C15.7844455,25.3411364 15.7149818,25.2974455 15.6445364,25.2653727 C15.6044455,24.9709091 15.6051818,24.6748091 15.6352091,24.3771545 C15.6402,24.3279818 15.6365182,24.2802818 15.6275182,24.2335636 L15.6275182,6.1002 C15.6275182,5.23930909 14.2922455,5.23930909 14.2922455,6.1002 L14.2922455,24.2932909 C14.2922455,24.3222545 14.2973182,24.3477 14.3002636,24.3751091 C14.3002636,24.3760909 14.2999364,24.3767455 14.2999364,24.3777273 C14.2519091,24.8591455 14.2906091,25.3350818 14.3864182,25.8091364 C14.4324818,26.0370818 14.6197636,26.2003091 14.8353545,26.2654364 C14.8567091,26.2941545 14.8780636,26.3232 14.9058,26.3509364 C16.1245636,27.5653636 17.3433273,28.7794636 18.5620909,29.9938091 L18.5620909,33.5884091 C18.0990818,33.0075818 17.5876364,32.4578455 17.1103091,31.8969818 C15.8895818,30.4628727 14.6397273,29.0538 13.3749,27.6584727 L13.3749,9.10456364 C13.3749,8.24367273 12.0396273,8.24367273 12.0396273,9.10456364 L12.0396273,22.6699364 C11.3409,21.9819273 10.6172182,21.321 9.86980909,20.6847 L9.86980909,15.7869 C9.8712,15.7855909 9.87250909,15.7849364 9.87381818,15.7835455 C10.4754273,15.1569818 11.0254909,14.4869727 11.5335818,13.7823545 C11.6206364,13.6611818 11.6427273,13.5153 11.6213727,13.3727727 C11.6213727,13.3684364 11.6227636,13.3647545 11.6227636,13.3604182 L11.6227636,4.93183636 C11.6227636,4.07094545 10.2874909,4.07094545 10.2874909,4.93183636 L10.2874909,13.2282 C10.1515909,13.4091 10.0124182,13.5873818 9.87021818,13.7629636 L9.87021818,12.8599364 C9.87021818,11.9990455 8.53494545,11.9990455 8.53494545,12.8599364 L8.53494545,20.9550273 C8.53494545,20.9667273 8.53764545,20.9763818 8.5383,20.9876727 C8.52062727,21.1555636 8.57929091,21.3315545 8.75626364,21.4800545 C9.90957273,22.4495182 11.0028273,23.4816545 12.0403636,24.5739273 L12.0403636,27.8820818 C12.0403636,28.1077364 12.1331455,28.2726 12.2687182,28.3801091 C12.2967818,28.4355818 12.3304909,28.4903182 12.3778636,28.5426818 C12.7818,28.9879364 13.1820545,29.4363 13.5819,29.8849091 L10.3141636,29.8849091 L7.6158,27.1881818 L7.6158,9.52183636 C7.6158,8.66094545 6.28052727,8.66094545 6.28052727,9.52183636 L6.28052727,16.3627364 C5.75206364,15.7388727 5.22335455,15.1152545 4.69489091,14.4913091 L4.69489091,7.35201818 C4.69489091,6.49112727 3.35961818,6.49112727 3.35961818,7.35201818 L3.35961818,14.7794727 C3.35961818,15.0428455 3.48512727,15.2248091 3.65874545,15.3269182 C4.53272727,16.3584 5.40662727,17.3895545 6.28052727,18.4210364 L6.28052727,27.2975727 C6.28052727,27.3320182 6.28584545,27.3623727 6.29018182,27.3941182 C6.26080909,27.5741182 6.3072,27.7680273 6.47615455,27.9365727 Z M28.2173727,30.8961818 C28.2610636,30.8024182 28.2865091,30.6932727 28.2865091,30.5671091 L28.2865091,28.5628909 C28.6566545,28.1926636 29.0268818,27.8224364 29.3971091,27.4522909 L29.3971091,33.2653909 C28.2437182,34.3092273 27.1050545,35.3691 25.9754727,36.4383 L25.9754727,35.9154818 C26.0248909,35.7212455 25.9841455,35.5049182 25.7982545,35.3196818 C25.4177182,34.9404545 25.0374273,34.5615545 24.6568909,34.1824091 C25.7394273,33.1435636 26.8537909,32.1400636 28.0061182,31.1783727 C28.1112545,31.0908273 28.1776909,30.9950182 28.2173727,30.8961818 Z M23.4073636,31.9083545 C24.0560182,31.3094455 24.7045909,30.7102091 25.3531636,30.1113818 C25.4223,30.0476455 25.4700818,29.9795727 25.5081273,29.9104364 C25.6495909,29.7875455 25.7441727,29.6039455 25.7441727,29.3596364 L25.7441727,25.8264818 C26.0833091,26.1662727 26.4221182,26.5065545 26.7613364,26.8463455 L26.7613364,30.2415545 C25.6674273,31.1605364 24.6058364,32.1152727 23.5746818,33.1034727 C23.3419909,32.8714364 23.1090545,32.6394 22.8763636,32.4077727 C23.0462182,32.2378364 23.2278545,32.0742818 23.4073636,31.9083545 Z M20.0869364,27.1768091 C20.4364636,27.4238182 20.6721,27.7342364 20.5969909,28.1358818 C20.5762909,28.2460909 20.5796455,28.3482 20.5979727,28.4426182 C20.5976455,28.4519455 20.5952727,28.4600455 20.5952727,28.4693727 L20.5952727,30.1351091 C20.4256636,29.9662364 20.2560545,29.7972 20.0868545,29.6283273 L20.0868545,27.1768091 L20.0869364,27.1768091 Z M17.8623818,24.4648636 L17.8623818,21.123 C18.0954,20.8867091 18.3283364,20.6506636 18.5616818,20.4142909 L18.5616818,24.9014455 C18.2809636,24.7869818 18.0209455,24.6497727 17.8623818,24.4648636 Z" id="Shape"></path>
                    <path d="M39.5382273,0.3258 C39.3636273,0.152181818 39.1440273,0.0634090909 38.9216455,0.0751090909 C38.8107818,0.0253636364 38.6905909,0 38.5634455,0 L6.37805455,0 C6.25082727,0 6.13071818,0.0250363636 6.01985455,0.0751090909 C5.79616364,0.0630818182 5.57787273,0.152181818 5.40327273,0.325472727 L0.272454545,5.40384545 C0.00777272727,5.66590909 -0.0553090909,6.02509091 0.102927273,6.35089091 L0.102927273,30.5326636 C0.102927273,30.5994273 0.110618182,30.6662727 0.126654545,30.7359818 C0.1323,30.9446182 0.218781818,31.1382 0.377345455,31.2977455 L7.15958182,38.0929909 C7.31143636,38.3336182 7.56016364,38.4655909 7.86125455,38.4655909 L14.4928636,38.4655909 C15.0456273,38.4655909 15.3351,38.0303182 15.3351,37.6002818 C15.3351,37.1706545 15.0456273,36.7353818 14.4928636,36.7353818 L8.24645455,36.7353818 L1.83272727,30.3073364 L1.83272727,6.29345455 L6.44375455,1.7298 L38.4976636,1.7298 L43.1083636,6.29345455 L43.1083636,30.3072545 L36.6949636,36.7359545 L30.4482273,36.7359545 C29.8953818,36.7359545 29.6063182,37.1712273 29.6063182,37.6008545 C29.6063182,38.0308091 29.8953818,38.4660818 30.4482273,38.4660818 L37.0798364,38.4660818 C37.3712727,38.4660818 37.6142727,38.3418818 37.7735727,38.1042 L44.5641545,31.2976636 C44.7227182,31.1384455 44.8084636,30.9448636 44.8145182,30.7362273 C44.8304727,30.6664364 44.8382455,30.5996727 44.8382455,30.5329909 L44.8382455,6.35121818 C44.9968091,6.02541818 44.9333182,5.66623636 44.6686364,5.40417273 L39.5382273,0.3258 Z" id="Shape"></path>
                </g>
            </g>
        </g>
    </g>
</svg>